<mxfile host="app.diagrams.net" modified="2022-02-24T13:00:23.862Z" agent="5.0 (Windows NT 10.0; Win64; x64) AppleWebKit/537.36 (KHTML, like Gecko) Chrome/98.0.4758.102 Safari/537.36" etag="aNnlznykyGNceBQUcdvN" version="16.6.3" type="github">
  <diagram id="mHaainOIuGDZRfobF8P7" name="Page-1">
    <mxGraphModel dx="1303" dy="780" grid="1" gridSize="10" guides="1" tooltips="1" connect="1" arrows="1" fold="1" page="1" pageScale="1" pageWidth="850" pageHeight="1100" math="0" shadow="0">
      <root>
        <mxCell id="0" />
        <mxCell id="1" parent="0" />
        <mxCell id="dzpYYT_hGaBct5s4qI5t-15" style="edgeStyle=orthogonalEdgeStyle;rounded=0;orthogonalLoop=1;jettySize=auto;html=1;entryX=0;entryY=0.5;entryDx=0;entryDy=0;" edge="1" parent="1" source="dzpYYT_hGaBct5s4qI5t-1" target="dzpYYT_hGaBct5s4qI5t-13">
          <mxGeometry relative="1" as="geometry" />
        </mxCell>
        <mxCell id="dzpYYT_hGaBct5s4qI5t-16" style="edgeStyle=orthogonalEdgeStyle;rounded=0;orthogonalLoop=1;jettySize=auto;html=1;entryX=0;entryY=0.5;entryDx=0;entryDy=0;" edge="1" parent="1" source="dzpYYT_hGaBct5s4qI5t-1" target="dzpYYT_hGaBct5s4qI5t-14">
          <mxGeometry relative="1" as="geometry" />
        </mxCell>
        <mxCell id="dzpYYT_hGaBct5s4qI5t-1" value="&lt;font style=&quot;font-size: 14px&quot;&gt;PROSES BISNIS&lt;br&gt;GAMATECHNO&lt;/font&gt;" style="shape=process;whiteSpace=wrap;html=1;backgroundOutline=1;fillColor=#0057B0;strokeColor=#FFB366;fontColor=#FFFF33;" vertex="1" parent="1">
          <mxGeometry x="370" y="250" width="210" height="100" as="geometry" />
        </mxCell>
        <mxCell id="dzpYYT_hGaBct5s4qI5t-7" style="edgeStyle=orthogonalEdgeStyle;rounded=0;orthogonalLoop=1;jettySize=auto;html=1;entryX=0.5;entryY=0;entryDx=0;entryDy=0;dashed=1;" edge="1" parent="1" source="dzpYYT_hGaBct5s4qI5t-2" target="dzpYYT_hGaBct5s4qI5t-3">
          <mxGeometry relative="1" as="geometry" />
        </mxCell>
        <mxCell id="dzpYYT_hGaBct5s4qI5t-2" value="Universitas Gadjah Mada" style="rounded=0;whiteSpace=wrap;html=1;fillColor=#dae8fc;strokeColor=#6c8ebf;" vertex="1" parent="1">
          <mxGeometry x="200" y="10" width="120" height="60" as="geometry" />
        </mxCell>
        <mxCell id="dzpYYT_hGaBct5s4qI5t-12" style="edgeStyle=orthogonalEdgeStyle;rounded=0;orthogonalLoop=1;jettySize=auto;html=1;entryX=0.5;entryY=0;entryDx=0;entryDy=0;" edge="1" parent="1" source="dzpYYT_hGaBct5s4qI5t-3" target="dzpYYT_hGaBct5s4qI5t-1">
          <mxGeometry relative="1" as="geometry">
            <Array as="points">
              <mxPoint x="260" y="200" />
              <mxPoint x="475" y="200" />
            </Array>
          </mxGeometry>
        </mxCell>
        <mxCell id="dzpYYT_hGaBct5s4qI5t-3" value="Gama Multi Usaha Mandiri (Holding Company)" style="rounded=0;whiteSpace=wrap;html=1;fillColor=#dae8fc;strokeColor=#6c8ebf;" vertex="1" parent="1">
          <mxGeometry x="200" y="110" width="120" height="60" as="geometry" />
        </mxCell>
        <mxCell id="dzpYYT_hGaBct5s4qI5t-10" style="edgeStyle=orthogonalEdgeStyle;rounded=0;orthogonalLoop=1;jettySize=auto;html=1;entryX=0.5;entryY=0;entryDx=0;entryDy=0;" edge="1" parent="1" source="dzpYYT_hGaBct5s4qI5t-4" target="dzpYYT_hGaBct5s4qI5t-1">
          <mxGeometry relative="1" as="geometry">
            <Array as="points">
              <mxPoint x="425" y="200" />
              <mxPoint x="475" y="200" />
            </Array>
          </mxGeometry>
        </mxCell>
        <mxCell id="dzpYYT_hGaBct5s4qI5t-4" value="Investor" style="rounded=0;whiteSpace=wrap;html=1;" vertex="1" parent="1">
          <mxGeometry x="365" y="110" width="120" height="60" as="geometry" />
        </mxCell>
        <mxCell id="dzpYYT_hGaBct5s4qI5t-8" style="edgeStyle=orthogonalEdgeStyle;rounded=0;orthogonalLoop=1;jettySize=auto;html=1;entryX=0.5;entryY=0;entryDx=0;entryDy=0;" edge="1" parent="1" source="dzpYYT_hGaBct5s4qI5t-5" target="dzpYYT_hGaBct5s4qI5t-1">
          <mxGeometry relative="1" as="geometry">
            <Array as="points">
              <mxPoint x="590" y="200" />
              <mxPoint x="475" y="200" />
            </Array>
          </mxGeometry>
        </mxCell>
        <mxCell id="dzpYYT_hGaBct5s4qI5t-5" value="Pemegang Saham Independen" style="rounded=0;whiteSpace=wrap;html=1;" vertex="1" parent="1">
          <mxGeometry x="530" y="110" width="120" height="60" as="geometry" />
        </mxCell>
        <mxCell id="dzpYYT_hGaBct5s4qI5t-11" style="edgeStyle=orthogonalEdgeStyle;rounded=0;orthogonalLoop=1;jettySize=auto;html=1;entryX=0.5;entryY=0;entryDx=0;entryDy=0;" edge="1" parent="1" source="dzpYYT_hGaBct5s4qI5t-6" target="dzpYYT_hGaBct5s4qI5t-1">
          <mxGeometry relative="1" as="geometry">
            <Array as="points">
              <mxPoint x="750" y="200" />
              <mxPoint x="475" y="200" />
            </Array>
          </mxGeometry>
        </mxCell>
        <mxCell id="dzpYYT_hGaBct5s4qI5t-6" value="Pemerintah (Regulator)" style="rounded=0;whiteSpace=wrap;html=1;fillColor=#fff2cc;strokeColor=#d6b656;" vertex="1" parent="1">
          <mxGeometry x="695" y="20" width="120" height="60" as="geometry" />
        </mxCell>
        <mxCell id="dzpYYT_hGaBct5s4qI5t-13" value="Pelanggan B2B" style="rounded=0;whiteSpace=wrap;html=1;fillColor=#f8cecc;strokeColor=#b85450;" vertex="1" parent="1">
          <mxGeometry x="680" y="220" width="150" height="70" as="geometry" />
        </mxCell>
        <mxCell id="dzpYYT_hGaBct5s4qI5t-14" value="Pelanggan B2C" style="rounded=0;whiteSpace=wrap;html=1;fillColor=#d5e8d4;strokeColor=#82b366;" vertex="1" parent="1">
          <mxGeometry x="680" y="330" width="150" height="80" as="geometry" />
        </mxCell>
        <mxCell id="dzpYYT_hGaBct5s4qI5t-26" style="edgeStyle=orthogonalEdgeStyle;rounded=0;orthogonalLoop=1;jettySize=auto;html=1;entryX=0.5;entryY=1;entryDx=0;entryDy=0;" edge="1" parent="1" source="dzpYYT_hGaBct5s4qI5t-17" target="dzpYYT_hGaBct5s4qI5t-1">
          <mxGeometry relative="1" as="geometry" />
        </mxCell>
        <mxCell id="dzpYYT_hGaBct5s4qI5t-17" value="Karyawan" style="rounded=0;whiteSpace=wrap;html=1;fillColor=#e1d5e7;strokeColor=#9673a6;" vertex="1" parent="1">
          <mxGeometry x="415" y="430" width="120" height="60" as="geometry" />
        </mxCell>
        <mxCell id="dzpYYT_hGaBct5s4qI5t-28" style="edgeStyle=orthogonalEdgeStyle;rounded=0;orthogonalLoop=1;jettySize=auto;html=1;entryX=0.5;entryY=1;entryDx=0;entryDy=0;" edge="1" parent="1" source="dzpYYT_hGaBct5s4qI5t-18" target="dzpYYT_hGaBct5s4qI5t-1">
          <mxGeometry relative="1" as="geometry" />
        </mxCell>
        <mxCell id="dzpYYT_hGaBct5s4qI5t-18" value="Penyedia Infrastruktur" style="rounded=0;whiteSpace=wrap;html=1;fillColor=#f5f5f5;fontColor=#333333;strokeColor=#666666;" vertex="1" parent="1">
          <mxGeometry x="570" y="430" width="120" height="60" as="geometry" />
        </mxCell>
        <mxCell id="dzpYYT_hGaBct5s4qI5t-27" style="edgeStyle=orthogonalEdgeStyle;rounded=0;orthogonalLoop=1;jettySize=auto;html=1;entryX=0.5;entryY=1;entryDx=0;entryDy=0;" edge="1" parent="1" source="dzpYYT_hGaBct5s4qI5t-21" target="dzpYYT_hGaBct5s4qI5t-1">
          <mxGeometry relative="1" as="geometry" />
        </mxCell>
        <mxCell id="dzpYYT_hGaBct5s4qI5t-21" value="Supplier" style="rounded=0;whiteSpace=wrap;html=1;fillColor=#f5f5f5;fontColor=#333333;strokeColor=#666666;" vertex="1" parent="1">
          <mxGeometry x="280" y="430" width="120" height="60" as="geometry" />
        </mxCell>
        <mxCell id="dzpYYT_hGaBct5s4qI5t-24" style="edgeStyle=orthogonalEdgeStyle;rounded=0;orthogonalLoop=1;jettySize=auto;html=1;entryX=-0.003;entryY=0.333;entryDx=0;entryDy=0;entryPerimeter=0;startArrow=classic;startFill=1;dashed=1;" edge="1" parent="1" source="dzpYYT_hGaBct5s4qI5t-22" target="dzpYYT_hGaBct5s4qI5t-1">
          <mxGeometry relative="1" as="geometry" />
        </mxCell>
        <mxCell id="dzpYYT_hGaBct5s4qI5t-22" value="Asosiasi" style="rounded=0;whiteSpace=wrap;html=1;fillColor=#ffe6cc;strokeColor=#d79b00;" vertex="1" parent="1">
          <mxGeometry x="130" y="230" width="120" height="60" as="geometry" />
        </mxCell>
        <mxCell id="dzpYYT_hGaBct5s4qI5t-25" style="edgeStyle=orthogonalEdgeStyle;rounded=0;orthogonalLoop=1;jettySize=auto;html=1;entryX=-0.003;entryY=0.66;entryDx=0;entryDy=0;entryPerimeter=0;startArrow=classic;startFill=1;dashed=1;" edge="1" parent="1" source="dzpYYT_hGaBct5s4qI5t-23" target="dzpYYT_hGaBct5s4qI5t-1">
          <mxGeometry relative="1" as="geometry" />
        </mxCell>
        <mxCell id="dzpYYT_hGaBct5s4qI5t-23" value="Partner" style="rounded=0;whiteSpace=wrap;html=1;fillColor=#ffe6cc;strokeColor=#d79b00;" vertex="1" parent="1">
          <mxGeometry x="130" y="320" width="120" height="60" as="geometry" />
        </mxCell>
      </root>
    </mxGraphModel>
  </diagram>
</mxfile>
